<?xml version="1.0" encoding="UTF-8"?>
<!DOCTYPE svg PUBLIC "-//W3C//DTD SVG 1.1//EN" "http://www.w3.org/Graphics/SVG/1.1/DTD/svg11.dtd">
<!-- Creator: CorelDRAW -->
<svg xmlns="http://www.w3.org/2000/svg" xml:space="preserve" width="64px" height="64px" style="shape-rendering:geometricPrecision; text-rendering:geometricPrecision; image-rendering:optimizeQuality; fill-rule:evenodd; clip-rule:evenodd"
viewBox="0 0 640 640"
 xmlns:xlink="http://www.w3.org/1999/xlink">
 <defs>
  <style type="text/css">
   <![CDATA[
    .fil0 {fill:white;fill-rule:nonzero}
   ]]>
  </style>
 </defs>
 <g id="Layer_x0020_1">
  <metadata id="CorelCorpID_0Corel-Layer"/>
  <path class="fil0" d="M0 320c0,-88.3594 35.8115,-168.368 93.7216,-226.278 57.9102,-57.9102 137.919,-93.7216 226.278,-93.7216 88.3594,0 168.368,35.8115 226.278,93.7216 57.9102,57.9102 93.7216,137.919 93.7216,226.278 0,88.3594 -35.8115,168.368 -93.7216,226.278 -57.9102,57.9102 -137.919,93.7216 -226.278,93.7216 -88.3594,0 -168.368,-35.8115 -226.278,-93.7216 -57.9102,-57.9102 -93.7216,-137.919 -93.7216,-226.278zm219.605 -51.7447c-9.28358,-9.04736 -24.1538,-8.83475 -33.1894,0.448824 -9.03554,9.29539 -8.82294,24.1538 0.460636,33.1894l117.297 113.753 16.3585 -16.8309 -16.3821 16.9018c9.33082,9.04736 24.2365,8.81113 33.2839,-0.519691 0.259846,-0.259846 0.519691,-0.543314 0.755915,-0.814971l115.017 -112.49c9.29539,-9.03554 9.49618,-23.894 0.460636,-33.1894 -9.03554,-9.28358 -23.894,-9.49618 -33.1894,-0.448824l-100.005 97.8083 -100.867 -97.8083zm-92.5996 -141.25c-49.3943,49.3943 -79.938,117.627 -79.938,192.995 0,75.3671 30.5437,143.6 79.938,192.995 49.3943,49.3943 117.627,79.938 192.995,79.938 75.3671,0 143.6,-30.5437 192.995,-79.938 49.3943,-49.3943 79.938,-117.627 79.938,-192.995 0,-75.3671 -30.5437,-143.6 -79.938,-192.995 -49.3943,-49.3943 -117.627,-79.938 -192.995,-79.938 -75.3671,0 -143.6,30.5437 -192.995,79.938z"/>
 </g>
</svg>
