<?xml version="1.0" encoding="UTF-8"?>
<!DOCTYPE svg PUBLIC "-//W3C//DTD SVG 1.1//EN" "http://www.w3.org/Graphics/SVG/1.1/DTD/svg11.dtd">
<!-- Creator: CorelDRAW -->
<svg xmlns="http://www.w3.org/2000/svg" xml:space="preserve" width="64px" height="64px" style="shape-rendering:geometricPrecision; text-rendering:geometricPrecision; image-rendering:optimizeQuality; fill-rule:evenodd; clip-rule:evenodd"
viewBox="0 0 640 640"
 xmlns:xlink="http://www.w3.org/1999/xlink">
 <defs>
  <style type="text/css">
   <![CDATA[
    .fil0 {fill:white}
   ]]>
  </style>
 </defs>
 <g id="Layer_x0020_1">
  <metadata id="CorelCorpID_0Corel-Layer"/>
  <path class="fil0" d="M110.919 -0.578747l418.163 0c61.0047,0 110.919,50.6463 110.919,112.549l0 416.072c0,61.9023 -49.914,112.537 -110.919,112.537l-418.163 0c-61.0047,0 -110.919,-50.6345 -110.919,-112.537l0 -416.072c0,-61.9023 49.914,-112.549 110.919,-112.549zm355.776 276.629c23.7286,-0.188979 42.8745,18.8742 42.8155,42.6147 -0.0236223,23.6814 -19.2876,43.0517 -43.0163,43.2289l-103.938 0.720481 -0.70867 104.068c-0.188979,23.4924 -19.5475,42.532 -43.2289,42.5084 -23.6696,-0.070867 -42.721,-19.1341 -42.532,-42.6501l0.720481 -103.324 -103.489 0.732292c-23.705,0.188979 -42.8864,-18.8624 -42.8509,-42.6029 0.0472447,-23.6932 19.3349,-43.0635 43.0281,-43.2525l103.938 -0.720481 0.720481 -104.056c0.188979,-23.5042 19.5357,-42.532 43.2171,-42.4966 23.6814,0.0472447 42.721,19.1223 42.5202,42.6265l-0.70867 103.348 103.513 -0.744104zm-353.615 -218.507l413.828 0c30.5555,0 55.5597,24.9924 55.5597,55.5243l0 413.84c0,30.5437 -25.0042,55.5479 -55.5597,55.5479l-413.828 0c-30.5437,0 -55.5479,-25.0042 -55.5479,-55.5479l0 -413.84c0,-30.5319 25.0042,-55.5243 55.5479,-55.5243z"/>
 </g>
</svg>
