<?xml version="1.0" encoding="UTF-8"?>
<!DOCTYPE svg PUBLIC "-//W3C//DTD SVG 1.1//EN" "http://www.w3.org/Graphics/SVG/1.1/DTD/svg11.dtd">
<!-- Creator: CorelDRAW -->
<svg xmlns="http://www.w3.org/2000/svg" xml:space="preserve" width="64px" height="64px" style="shape-rendering:geometricPrecision; text-rendering:geometricPrecision; image-rendering:optimizeQuality; fill-rule:evenodd; clip-rule:evenodd"
viewBox="0 0 640 640"
 xmlns:xlink="http://www.w3.org/1999/xlink">
 <defs>
  <style type="text/css">
   <![CDATA[
    .fil0 {fill:white;fill-rule:nonzero}
   ]]>
  </style>
 </defs>
 <g id="Layer_x0020_1">
  <metadata id="CorelCorpID_0Corel-Layer"/>
  <path class="fil0" d="M571.46 320l0 0.070867 0.129923 0c0,69.3079 -28.2287,132.191 -73.808,177.758 -45.5557,45.5439 -108.379,73.7371 -177.628,73.7608l0 -0.129923 -0.153545 0 -0.070867 0 0 0.129923c-69.2961,0 -132.179,-28.2287 -177.746,-73.7844 -45.5439,-45.5557 -73.7608,-108.391 -73.7726,-177.652l0.129923 0 0 -0.153545 0 -0.070867 -0.129923 0c0,-46.2643 12.5317,-89.6704 34.3469,-126.899 43.6659,-74.5167 124.584,-124.596 217.101,-124.62l0 0.129923 0.141734 0 0.070867 0 0 -0.129923c69.3079,0 132.191,28.2405 177.758,73.8198 7.50009,7.50009 14.4687,15.3781 20.8231,23.5515 33.0831,42.5438 52.8077,96.072 52.8077,154.218zm-251.448 177.368l-176.719 -183.794 113.753 -0.0236223 0 -170.908 125.907 0 0 170.919 113.765 0 -176.707 183.805zm319.858 -177.297l0.141734 0 0 -0.070867c0,-73.9261 -25.1224,-142.041 -67.2764,-196.254 -8.26782,-10.6301 -17.1262,-20.6814 -26.4452,-29.9886 -57.792,-57.8157 -137.789,-93.6035 -226.219,-93.6271l0 -0.141734 -0.070867 0 -0.141734 0 0 0.141734c-117.651,0.0472447 -220.526,63.6622 -276.015,158.352 -27.7681,47.3864 -43.7013,102.592 -43.7131,161.447l-0.141734 0 0 0.070867 0 0.153545 0.141734 0c0.0354335,88.383 35.8115,168.345 93.5917,226.125 57.792,57.792 137.789,93.5681 226.208,93.5917l0 0.141734 0.070867 0 0.153545 0 0 -0.141734c88.3712,-0.0472447 168.321,-35.7997 226.101,-93.5799 57.8157,-57.792 93.5917,-137.789 93.6153,-226.219z"/>
 </g>
</svg>
