<?xml version="1.0" encoding="utf-8"?>
<!-- Generator: Adobe Illustrator 23.0.2, SVG Export Plug-In . SVG Version: 6.00 Build 0)  -->
<svg version="1.1" id="Layer_1" xmlns="http://www.w3.org/2000/svg" xmlns:xlink="http://www.w3.org/1999/xlink" x="0px" y="0px"
	 viewBox="0 0 301.28 84.02" style="enable-background:new 0 0 301.28 84.02;" xml:space="preserve">
<style type="text/css">
	.st0{fill:#FFFFFF;}
	.st1{fill:#7B86C2;}
</style>
<g>
	<path class="st0" d="M27.96,83.46l-14.2-41.8L4,44.97l-1.77-5.2l29.22-9.93l1.77,5.2l-9.76,3.32l14.2,41.8L27.96,83.46z"/>
	<path class="st0" d="M76.07,69.94l-10.09,2.12L58.05,34.3l10.09-2.12l2.26,10.75c-0.35-3.67,0.12-6.57,1.42-8.72
		c1.29-2.14,3.43-3.53,6.41-4.15l5.01-1.05l2.26,10.75l-10.09,2.12c-1.37,0.29-2.44,1.06-3.2,2.33c-0.77,1.27-0.99,2.65-0.67,4.16
		L76.07,69.94z"/>
	<path class="st0" d="M170.07,62.7l3.33-49.53l10.28,0.69l-3.33,49.53L170.07,62.7z"/>
	<path class="st0" d="M204.78,66.18l7.88-49.01l10.18,1.64l-7.88,49.01L204.78,66.18z"/>
</g>
<circle class="st1" cx="126.87" cy="42.88" r="22.25"/>
<ellipse transform="matrix(0.5785 -0.8157 0.8157 0.5785 24.0056 88.1033)" class="st1" cx="97.25" cy="20.82" rx="3.49" ry="7.36"/>
<ellipse transform="matrix(0.6319 -0.7751 0.7751 0.6319 42.6797 120.6032)" class="st1" cx="148.3" cy="15.37" rx="7.36" ry="3.49"/>
<ellipse transform="matrix(0.2379 -0.9713 0.9713 0.2379 91.6509 133.6887)" class="st1" cx="131.02" cy="8.44" rx="7.36" ry="3.49"/>
<ellipse transform="matrix(0.8917 -0.4526 0.4526 0.8917 7.5462 51.782)" class="st1" cx="111.98" cy="10.12" rx="3.49" ry="7.36"/>
<circle class="st0" cx="130.55" cy="37.14" r="7.18"/>
<circle class="st1" cx="258.78" cy="58.11" r="22.25"/>
<ellipse transform="matrix(0.9497 -0.3132 0.3132 0.9497 5.3409 78.822)" class="st1" cx="248.04" cy="22.78" rx="3.49" ry="7.36"/>
<ellipse transform="matrix(0.9686 -0.2488 0.2488 0.9686 -2.921 74.2751)" class="st1" cx="292.37" cy="48.69" rx="7.36" ry="3.49"/>
<ellipse transform="matrix(0.7679 -0.6406 0.6406 0.7679 44.5393 188.6318)" class="st1" cx="282.56" cy="32.86" rx="7.36" ry="3.49"/>
<ellipse transform="matrix(0.1649 -0.9863 0.9863 0.1649 199.744 281.7379)" class="st1" cx="266.25" cy="22.91" rx="7.36" ry="3.49"/>
<circle class="st0" cx="263.32" cy="54.33" r="7.18"/>
</svg>
